<?xml version="1.0" encoding="utf-8"?>
<!-- Generated by IcoMoon.io -->
<!DOCTYPE svg PUBLIC "-//W3C//DTD SVG 1.1//EN" "http://www.w3.org/Graphics/SVG/1.1/DTD/svg11.dtd">
<svg version="1.1" xmlns="http://www.w3.org/2000/svg" xmlns:xlink="http://www.w3.org/1999/xlink" width="512" height="512" viewBox="0 0 512 512">
<g>
</g>
	<path d="M215.132 33.485c57.2 0 104.806 18.279 104.806 40.386 0 11.049-12.022 21.125-30.761 28.365-4.823 1.894 12.002 50.002 6.697 51.425-5.765 1.444-34.12-43.735-40.366-42.311-12.503 1.936-25.928 2.847-40.376 2.847-57.651 0-104.755-18.237-104.755-40.325 0-22.108 47.104-40.386 104.755-40.386v0zM335.76 144.999c-16.804 0-30.74 13.456-30.74 29.778v88.453c0 12.514 8.182 23.552 19.221 27.873v-84.101c0-4.352 3.861-8.172 8.161-8.172v0c4.844 0 8.202 3.82 8.202 8.172v86.498h83.138v-86.498c0-4.352 3.84-8.172 8.161-8.172v0c4.362 0 8.182 3.82 8.182 8.172v83.62c10.558-4.803 17.776-15.401 17.776-27.392v-88.453c0-16.322-13.957-29.778-30.761-29.778h-91.341zM381.44 55.593c21.637 0 38.942 17.316 38.942 38.943 0 21.606-17.296 38.933-38.942 38.933-21.616 0-38.942-17.316-38.942-38.933 0-21.627 17.326-38.943 38.942-38.943v0zM96.942 330.517h91.289c17.285 0 31.242 13.445 31.242 29.798v88.423c0 12.022-7.68 22.118-18.258 26.921v-83.149c0-4.813-3.358-8.171-8.161-8.171v0c-4.352 0-8.172 3.358-8.172 8.171v86.006h-82.678v-86.006c0-4.813-3.85-8.171-8.171-8.171v0c-4.802 0-8.171 3.358-8.171 8.171v84.111c-11.52-4.332-19.712-15.38-19.712-27.884v-88.423c0-16.353 13.978-29.798 30.791-29.798v0zM142.582 240.63c21.617 0 39.414 17.787 39.414 39.434s-17.787 38.902-39.414 38.902-38.933-17.264-38.933-38.902 17.316-39.434 38.933-39.434v0zM158.894 149.821c-57.661 0-104.755 18.227-104.755 40.345 0 11.079 12.022 21.145 30.791 28.375 4.782 1.894-12.514 49.981-6.728 51.415 5.263 1.423 33.638-43.735 39.874-42.762 12.503 2.375 26.43 3.369 40.827 3.369 57.201 0 104.325-18.288 104.325-40.397-0.010-22.119-47.135-40.345-104.335-40.345z" fill="#000000" />
</svg>
